<?xml version="1.0" standalone="no"?>
<!DOCTYPE svg PUBLIC "-//W3C//DTD SVG 20010904//EN"
 "http://www.w3.org/TR/2001/REC-SVG-20010904/DTD/svg10.dtd">
<svg version="1.0" xmlns="http://www.w3.org/2000/svg"
 width="520.000000pt" height="520.000000pt" viewBox="0 0 520.000000 520.000000"
 preserveAspectRatio="xMidYMid meet">
<metadata>
Created by potrace 1.11, written by Peter Selinger 2001-2013
</metadata>
<g transform="translate(0.000000,520.000000) scale(0.100000,-0.100000)"
fill="#000000" stroke="none">
<path d="M271 3565 c-8 -10 -51 -165 -51 -181 0 -5 51 -9 113 -9 131 1 165 -6
198 -41 l24 -26 1 -496 c2 -546 3 -537 -59 -583 -29 -21 -43 -24 -137 -26 -58
-1 -110 -2 -116 -2 -8 -1 -54 -158 -54 -187 0 -10 1039 -12 1055 -2 6 3 34 9
63 13 172 22 350 133 411 259 47 96 39 264 -17 356 -45 74 -195 190 -245 190
-34 0 -26 20 15 39 53 24 129 90 158 137 82 131 50 310 -75 421 -82 74 -178
118 -300 138 -74 12 -975 12 -984 0z m885 -120 c106 -54 157 -203 128 -380
-14 -87 -72 -150 -160 -174 -60 -16 -184 -18 -193 -2 -4 6 -8 132 -8 278 0
317 -5 303 110 303 58 0 83 -5 123 -25z m39 -694 c57 -27 113 -87 144 -151 23
-49 26 -67 26 -165 0 -96 -3 -116 -24 -155 -62 -118 -136 -168 -250 -168 -63
0 -127 20 -156 49 -15 15 -16 607 -1 616 42 27 183 13 261 -26z"/>
<path d="M3234 3134 c-98 -20 -160 -60 -216 -137 -12 -15 -13 -9 -13 45 l0 63
-97 2 -98 2 0 -55 c-1 -30 -1 -146 -1 -259 0 -113 0 -210 1 -215 0 -6 44 26
97 71 95 80 98 83 110 139 14 70 31 105 75 149 42 43 87 62 148 63 87 0 150
-54 150 -131 0 -66 -36 -97 -230 -194 -278 -140 -363 -205 -394 -298 -48 -150
12 -294 150 -364 54 -27 68 -30 164 -30 99 0 110 2 172 33 36 18 82 50 102 72
l36 40 1 -32 c1 -18 0 -45 -1 -60 -1 -16 2 -29 7 -29 4 -1 131 -2 281 -3 175
-1 276 2 282 9 12 15 44 174 36 182 -3 3 -52 7 -109 8 -132 2 -124 1 -141 33
-11 21 -14 89 -14 337 0 171 -2 317 -4 325 -2 12 8 15 50 16 65 0 105 -18 126
-59 9 -18 90 -212 181 -431 l164 -400 -19 -44 c-37 -84 -115 -154 -211 -190
-47 -17 -80 -20 -234 -22 -99 0 -183 -4 -187 -8 -7 -7 -48 -162 -48 -180 0 -7
154 -10 440 -10 376 -1 440 1 440 14 0 19 0 19 11 56 6 18 12 42 14 53 3 11 7
32 11 48 l6 27 -119 0 -118 1 30 22 c95 69 102 82 335 647 94 228 179 423 188
433 30 33 56 41 141 43 45 1 87 6 92 11 4 4 11 26 14 48 4 22 10 56 16 75 5
19 9 41 9 47 0 10 -61 13 -275 12 -157 0 -275 -5 -275 -10 0 -13 -1 -16 -10
-49 -5 -17 -12 -53 -15 -80 -6 -44 -4 -50 12 -51 22 -1 64 -5 79 -7 34 -5 23
-55 -54 -248 l-79 -197 -33 79 c-18 44 -40 97 -50 119 -40 89 -72 171 -76 196
-6 36 17 52 78 55 57 3 61 6 65 37 2 12 8 46 13 76 6 30 10 60 10 67 0 10 -83
13 -380 13 -209 0 -379 -3 -378 -7 3 -12 -14 -92 -19 -92 -3 0 -24 19 -47 42
-39 39 -101 74 -149 84 -53 11 -187 10 -243 -2z m151 -521 c9 -23 9 -227 0
-281 -3 -23 -20 -59 -36 -81 -68 -94 -188 -99 -235 -9 -46 89 -2 228 103 321
72 64 152 88 168 50z"/>
<path d="M2527 3108 c-75 -16 -141 -64 -190 -138 -17 -24 -17 -22 -17 57 l0
81 -290 1 c-254 2 -290 0 -291 -14 -1 -8 -2 -18 -3 -22 -16 -71 -27 -145 -22
-150 3 -3 43 -6 88 -5 170 1 168 5 168 -363 l0 -287 -33 -33 c-32 -32 -34 -32
-120 -32 -48 0 -90 -3 -93 -5 -2 -3 -6 -14 -8 -24 -2 -11 -11 -47 -20 -80 -9
-34 -16 -68 -16 -75 0 -12 84 -14 485 -14 267 0 485 2 486 5 0 3 2 12 4 20 21
85 35 164 30 168 -2 3 -86 5 -186 5 l-181 0 4 276 c5 298 11 337 65 409 22 29
52 43 54 25 0 -5 2 -25 4 -45 4 -46 31 -94 67 -121 34 -25 119 -27 164 -4 101
53 130 179 66 287 -42 69 -122 99 -215 78z"/>
<path d="M4724 1768 c-71 -42 -64 -152 13 -184 46 -20 103 -6 127 30 65 100
-38 214 -140 154z m87 -8 c22 0 49 -42 49 -76 0 -47 -13 -69 -50 -84 -35 -15
-84 0 -100 31 -14 25 -12 81 4 101 15 21 56 38 74 32 8 -2 18 -4 23 -4z"/>
<path d="M4739 1731 c0 -6 -1 -27 -1 -46 0 -58 2 -65 12 -65 6 0 10 11 10 25
0 14 4 25 8 25 5 0 15 -11 22 -25 7 -14 20 -25 28 -25 12 0 12 4 -1 24 -15 22
-15 26 -1 37 8 7 14 22 12 33 -2 17 -11 22 -45 24 -25 2 -43 -1 -44 -7z m66
-32 c-9 -14 -45 -11 -45 4 0 8 3 17 6 20 10 9 46 -12 39 -24z"/>
</g>
</svg>
